<?xml version="1.0" encoding="UTF-8" standalone="no"?>
<!-- Created with Inkscape (http://www.inkscape.org/) -->

<svg
   width="210mm"
   height="297mm"
   viewBox="0 0 210 297"
   version="1.1"
   id="svg1"
   inkscape:version="1.3 (0e150ed6c4, 2023-07-21)"
   sodipodi:docname="logo.svg"
   inkscape:export-filename="logo32.png"
   inkscape:export-xdpi="9.5820055"
   inkscape:export-ydpi="9.5820055"
   xmlns:inkscape="http://www.inkscape.org/namespaces/inkscape"
   xmlns:sodipodi="http://sodipodi.sourceforge.net/DTD/sodipodi-0.dtd"
   xmlns="http://www.w3.org/2000/svg"
   xmlns:svg="http://www.w3.org/2000/svg">
  <sodipodi:namedview
     id="namedview1"
     pagecolor="#ffffff"
     bordercolor="#000000"
     borderopacity="0.25"
     inkscape:showpageshadow="2"
     inkscape:pageopacity="0.0"
     inkscape:pagecheckerboard="0"
     inkscape:deskcolor="#d1d1d1"
     inkscape:document-units="px"
     showborder="false"
     showgrid="false"
     inkscape:zoom="1.4142136"
     inkscape:cx="322.44069"
     inkscape:cy="568.86741"
     inkscape:window-width="1920"
     inkscape:window-height="1009"
     inkscape:window-x="-8"
     inkscape:window-y="-8"
     inkscape:window-maximized="1"
     inkscape:current-layer="layer1">
    <inkscape:grid
       id="grid1"
       units="px"
       originx="0"
       originy="0"
       spacingx="0.26458333"
       spacingy="0.26458334"
       empcolor="#0099e5"
       empopacity="0.30196078"
       color="#0099e5"
       opacity="0.14901961"
       empspacing="5"
       dotted="false"
       gridanglex="30"
       gridanglez="30"
       visible="false" />
  </sodipodi:namedview>
  <defs
     id="defs1">
    <rect
       x="-4"
       y="267"
       width="5"
       height="98"
       id="rect5" />
    <rect
       x="407"
       y="378"
       width="31"
       height="24"
       id="rect1" />
  </defs>
  <g
     inkscape:label="Layer 1"
     inkscape:groupmode="layer"
     id="layer1">
    <g
       id="path2"
       transform="matrix(1.1794852,0,0,1.200768,-53.587964,-7.229156)"
       style="fill:#4d4d4d;stroke:none;stroke-width:2.64583;stroke-opacity:0.504386">
      <rect
         style="fill:none;fill-opacity:1;stroke:none;stroke-width:2.2312;stroke-dasharray:none;stroke-opacity:0.505882"
         id="rect8"
         width="71.917526"
         height="70.56604"
         x="96.109917"
         y="93.946533" />
      <g
         id="path10"
         transform="matrix(0.96949261,0,0,0.97991329,3.6572977,-23.569912)"
         style="fill:#475569;stroke:none;stroke-opacity:0.505882;stroke-width:2.73717052"
         inkscape:export-filename="logo32.svg"
         inkscape:export-xdpi="9.0876102"
         inkscape:export-ydpi="9.0876102">
        <g
           id="path5"
           style="stroke:none">
          <path
             style="color:#000000;stroke:none;stroke-opacity:1;-inkscape-stroke:none"
             d="m 131.79167,122.53413 a 83.413178,82.295552 0 0 0 -31.37247,6.23046 83.413178,82.295552 0 0 0 30.76122,59.8487 83.413178,82.295552 0 0 0 31.93159,-60.04212 83.413178,82.295552 0 0 0 -31.32034,-6.03704 z"
             id="path3" />
          <path
             style="color:#000000;fill:#0f172a;fill-opacity:0.505882;stroke:none;stroke-opacity:1;-inkscape-stroke:none"
             d="m 131.7832,121.16602 c -10.94132,0.0606 -21.76695,2.21096 -31.880856,6.33203 l -0.898438,0.36523 0.04883,0.9707 c 1.189436,23.74819 12.564916,45.87403 31.273436,60.84766 l 0.83789,0.67188 0.85156,-0.65625 c 19.20451,-14.7958 31.03522,-37.03655 32.4629,-61.04493 l 0.0586,-0.98437 -0.91602,-0.36719 c -10.11094,-4.04712 -20.91772,-6.1298 -31.82812,-6.13476 h -0.004 z m 0.008,2.73632 h 0.008 c 10.21588,0.006 20.32441,1.93465 29.83203,5.60352 -1.62455,22.44903 -12.64485,43.19134 -30.43359,57.29101 -17.31996,-14.25824 -27.91494,-34.89453 -29.3086,-57.10156 9.51702,-3.74269 19.65044,-5.7352 29.90235,-5.79297 z"
             id="path6" />
        </g>
        <g
           id="path4"
           style="stroke:none">
          <path
             style="color:#000000;stroke:none;stroke-opacity:1;-inkscape-stroke:none"
             d="m 132.4632,121.22521 c -11.15773,0.0606 -22.19885,2.20835 -32.512766,6.32552 l -0.886803,0.35532 0.04782,0.93517 c 1.212939,23.72531 12.812599,45.832 31.891009,60.7914 l 0.82701,0.64818 0.84097,-0.63255 c 19.58421,-14.78176 31.64677,-37.00138 33.10264,-60.98665 l 0.0577,-0.95272 -0.90274,-0.35338 c -10.3109,-4.0433 -21.33078,-6.12533 -32.45697,-6.13029 h -0.004 z m 0.006,2.64539 h 0.008 c 10.44054,0.006 20.7727,1.93569 30.48807,5.61294 -1.65004,22.47903 -12.91386,43.25146 -31.10186,57.36117 -17.70912,-14.26882 -28.53977,-34.93304 -29.954,-57.16985 9.72495,-3.75119 20.08245,-5.74642 30.55982,-5.80426 z"
             id="path7" />
          <path
             style="color:#000000;fill:#0f172a;fill-opacity:0.505882;stroke:none;stroke-opacity:1;-inkscape-stroke:none"
             d="m 132.45508,119.85742 c -11.32844,0.0615 -22.53768,2.24079 -33.011721,6.42188 h -0.002 L 97.646484,127 l 0.09766,1.91016 c 1.233441,24.12633 13.032439,46.60167 32.414059,61.79882 l 1.6543,1.29688 1.68164,-1.26367 v -0.002 c 19.89488,-15.01624 32.16406,-37.60553 33.64453,-61.99609 l 0.11914,-1.94726 -1.83008,-0.71485 c -10.47077,-4.10599 -21.65856,-6.21957 -32.95507,-6.22461 h -0.002 -0.004 -0.008 z m 0.006,2.73633 c 6.5e-4,0 0.001,0 0.002,0 h 0.006 v 2.64453 h 0.008 c 9.91477,0.006 19.7199,1.8156 28.99024,5.19336 -1.85974,21.31084 -12.50323,40.96102 -29.58594,54.5957 -16.62383,-13.77824 -26.85673,-33.32549 -28.48438,-54.4082 9.28409,-3.45152 19.11781,-5.32497 29.07227,-5.38086 z m -31.97852,6.21875 c 5.7e-4,-2.3e-4 0.001,2.3e-4 0.002,0 v 0.0195 c -3.5e-4,-0.007 -0.002,-0.013 -0.002,-0.0195 z m 63.37305,4.48633 c -0.18051,1.49104 -0.30506,2.99247 -0.56836,4.46484 0.26291,-1.47201 0.38802,-2.97394 0.56836,-4.46484 z m -62.87891,0.16992 c 0.16279,1.4676 0.27276,2.94631 0.51563,4.39648 -0.24334,-1.45097 -0.3526,-2.9283 -0.51563,-4.39648 z m 61.35547,8.44141 c -0.33153,1.41327 -0.60073,2.84218 -1.00781,4.23242 0.40629,-1.38938 0.67686,-2.81987 1.00781,-4.23242 z m -59.93555,0.0957 c 0.30896,1.38708 0.55792,2.79059 0.93946,4.15625 -0.38214,-1.36609 -0.63005,-2.76889 -0.93946,-4.15625 z m 2.44922,8.66797 c 0.40368,1.1715 0.73619,2.36838 1.19336,3.51953 -0.4577,-1.15126 -0.78922,-2.348 -1.19336,-3.51953 z m 54.88672,0.0332 c -0.41973,1.16727 -0.76519,2.36151 -1.23828,3.50781 0.47256,-1.14635 0.81901,-2.3404 1.23828,-3.50781 z m -45.79687,18.53125 c 0.33477,0.50264 0.73384,0.96519 1.08008,1.46094 -0.34657,-0.49574 -0.745,-0.95831 -1.08008,-1.46094 z m 36.33789,0.11133 c -0.24476,0.35498 -0.53852,0.67789 -0.78907,1.0293 0.25036,-0.35151 0.5445,-0.67422 0.78907,-1.0293 z m -31.17188,6.8125 c 0.41615,0.50169 0.89548,0.95649 1.32422,1.44922 -0.42912,-0.49264 -0.90771,-0.94761 -1.32422,-1.44922 z m 25.85547,0.0781 c -0.4271,0.49769 -0.91381,0.94908 -1.35351,1.4375 0.43925,-0.48846 0.92684,-0.93978 1.35351,-1.4375 z m -19.96875,6.29297 c 0.52691,0.51513 1.11426,0.97789 1.65625,1.48047 -0.54256,-0.50246 -1.1288,-0.96543 -1.65625,-1.48047 z m 13.89453,0.0664 c -0.52049,0.49071 -1.09831,0.92955 -1.63281,1.4082 0.53399,-0.47883 1.11282,-0.91735 1.63281,-1.4082 z"
             id="path8" />
        </g>
      </g>
      <text
         xml:space="preserve"
         style="font-style:normal;font-variant:normal;font-weight:normal;font-stretch:normal;font-size:33.3754px;font-family:Kirsty;-inkscape-font-specification:'Kirsty, Normal';font-variant-ligatures:normal;font-variant-caps:normal;font-variant-numeric:normal;font-variant-east-asian:normal;fill:#e3e7ef;fill-opacity:1;stroke:none;stroke-width:27.8131;stroke-dasharray:none;stroke-opacity:0.504386"
         x="140.61655"
         y="111.39575"
         id="text15"
         transform="scale(0.81423564,1.2281457)"><tspan
           sodipodi:role="line"
           id="tspan15"
           style="font-style:normal;font-variant:normal;font-weight:normal;font-stretch:normal;font-size:33.3754px;font-family:Kirsty;-inkscape-font-specification:'Kirsty, Normal';font-variant-ligatures:normal;font-variant-caps:normal;font-variant-numeric:normal;font-variant-east-asian:normal;fill:#e3e7ef;fill-opacity:1;stroke:none;stroke-width:27.8131;stroke-dasharray:none"
           x="140.61655"
           y="111.39575">PB</tspan></text>
    </g>
  </g>
</svg>
